<?xml version="1.0" encoding="UTF-8"?>
<svg id="Layer_1" data-name="Layer 1" xmlns="http://www.w3.org/2000/svg" viewBox="0 0 90.09 90.35">
  <defs>
    <style>
      .cls-1 {
        fill: #c0e4dd;
      }

      .cls-2 {
        fill: #fff;
      }

      .cls-3 {
        fill: none;
        stroke: #121617;
      }

      .cls-3, .cls-4 {
        stroke-miterlimit: 10;
      }

      .cls-4 {
        stroke: #000;
        stroke-width: 2px;
      }

      .cls-4, .cls-5 {
        fill: #121617;
      }
    </style>
  </defs>
  <path class="cls-1" d="M45.19,6.44C23.92,6.44,6.61,23.75,6.61,45.03s17.31,38.59,38.59,38.59,38.59-17.31,38.59-38.59S66.47,6.44,45.19,6.44"/>
  <polygon class="cls-2" points="54.98 82.39 31.41 58.71 72.8 17.25 54.98 82.39"/>
  <polygon class="cls-2" points="7.86 35.07 31.38 58.71 72.79 17.26 7.86 35.07"/>
  <path class="cls-5" d="M17.43,73.25c-.16,0-.32-.06-.45-.19-.25-.25-.25-.65,0-.89l55.42-55.4c.25-.25.65-.25.89,0,.25.25.25.65,0,.89l-55.42,55.4c-.12.12-.28.19-.45.19"/>
  <path class="cls-4" d="M45.19,84.88c-21.97,0-39.85-17.88-39.85-39.85S23.22,5.18,45.19,5.18s39.85,17.88,39.85,39.85-17.88,39.85-39.85,39.85M45.19,6.44C23.92,6.44,6.61,23.75,6.61,45.03s17.31,38.59,38.59,38.59,38.59-17.31,38.59-38.59S66.47,6.44,45.19,6.44"/>
  <path class="cls-5" d="M55.07,83.23c-.16,0-.33-.07-.45-.19L7.19,35.45c-.16-.16-.22-.39-.16-.61.06-.22.23-.39.45-.45l65.08-17.67c.22-.06.45,0,.61.16.16.16.22.39.16.61l-17.65,65.26c-.06.22-.23.39-.45.45-.05.01-.11.02-.16.02M8.85,35.33l45.89,46.05,17.08-63.14L8.85,35.33Z"/>
  <path class="cls-5" d="M19.01,71.07c-.9-.87-2.35-.85-3.23.05-.87.9-.85,2.35.05,3.23.44.43,1.02.64,1.59.64s1.19-.23,1.64-.69c.88-.9.86-2.35-.05-3.23"/>
  <path class="cls-5" d="M32.88,57.13c-.9-.87-2.35-.85-3.22.05-.42.44-.65,1.01-.65,1.62,0,.61.26,1.18.69,1.6.43.42.99.65,1.59.65h.04c.61-.01,1.18-.26,1.6-.69.88-.9.86-2.35-.05-3.23"/>
  <path class="cls-4" d="M17.46,73.2c-.16,0-.32-.06-.45-.19-.25-.25-.25-.65,0-.89l55.4-55.38c.25-.25.65-.25.89,0,.25.25.25.65,0,.89l-55.4,55.38c-.12.12-.28.19-.45.19"/>
  <path class="cls-4" d="M55.08,83.18c-.17,0-.33-.07-.45-.19L7.22,35.42c-.16-.16-.22-.39-.16-.61.06-.22.23-.39.44-.45l65.06-17.66c.22-.06.45,0,.61.16.16.16.22.39.16.61l-17.65,65.23c-.06.22-.23.39-.45.45-.05.01-.11.02-.16.02M8.88,35.3l45.87,46.03,17.08-63.11L8.88,35.3Z"/>
  <path class="cls-5" d="M7.4,40.16c-1.46,0-2.77-.53-3.76-1.49-1.01-.99-1.58-2.3-1.6-3.71-.02-1.41.51-2.75,1.49-3.76,2.02-2.08,5.37-2.13,7.46-.11,2.09,2.04,2.14,5.38.12,7.47-.98,1.01-2.3,1.58-3.71,1.6h0ZM7.32,34.16c-.2,0-.39.08-.52.22-.27.28-.27.74.01,1.01.29.28.74.27,1.02,0,.13-.14.21-.33.2-.51,0-.19-.08-.38-.21-.5-.13-.13-.32-.21-.51-.21Z"/>
  <path class="cls-5" d="M55.24,88.18c-1.47,0-2.77-.53-3.76-1.49-1.01-.99-1.58-2.3-1.6-3.71-.02-1.42.51-2.75,1.5-3.77,2.02-2.08,5.37-2.14,7.46-.11,2.09,2.03,2.14,5.38.11,7.47-.97,1.01-2.29,1.58-3.7,1.6h0ZM55.16,82.18c-.2,0-.39.09-.52.22-.27.28-.27.74.02,1.01.29.28.74.27,1.02-.01.13-.13.2-.32.2-.51,0-.19-.08-.38-.21-.5-.14-.13-.32-.21-.51-.21Z"/>
  <g>
    <path class="cls-5" d="M72.86,22.45c-1.38,0-2.69-.53-3.68-1.49-2.09-2.03-2.14-5.38-.11-7.47.98-1.01,2.3-1.58,3.71-1.6,1.35-.03,2.73.5,3.75,1.49h0c1.01.99,1.58,2.3,1.6,3.71.02,1.41-.51,2.75-1.49,3.76-.99,1.02-2.37,1.6-3.79,1.6ZM73.37,16.65l-1,1.03c.13.13.3.21.54.2.16,0,.35-.09.48-.22.27-.28.26-.74-.02-1.01h0ZM72.86,16.45c-.19,0-.38.08-.52.22-.13.13-.21.32-.2.51,0,.19.08.38.22.5l1-1.03c-.13-.13-.32-.2-.5-.2Z"/>
    <path class="cls-3" d="M72.86,22.45c-1.38,0-2.69-.53-3.68-1.49-2.09-2.03-2.14-5.38-.11-7.47.98-1.01,2.3-1.58,3.71-1.6,1.35-.03,2.73.5,3.75,1.49h0c1.01.99,1.58,2.3,1.6,3.71.02,1.41-.51,2.75-1.49,3.76-.99,1.02-2.37,1.6-3.79,1.6ZM73.37,16.65l-1,1.03c.13.13.3.21.54.2.16,0,.35-.09.48-.22.27-.28.26-.74-.02-1.01h0ZM72.86,16.45c-.19,0-.38.08-.52.22-.13.13-.21.32-.2.51,0,.19.08.38.22.5l1-1.03c-.13-.13-.32-.2-.5-.2Z"/>
  </g>
  <path class="cls-5" d="M17.44,77.94c-1.38,0-2.69-.53-3.67-1.49-2.09-2.03-2.14-5.38-.11-7.47.98-1.01,2.3-1.58,3.71-1.6,1.45-.01,2.74.51,3.75,1.49,1.02.99,1.58,2.3,1.61,3.71.02,1.41-.51,2.75-1.49,3.76-1,1.03-2.35,1.6-3.79,1.6ZM17.44,71.94c-.19,0-.38.08-.52.22-.13.14-.21.32-.2.51,0,.19.08.37.22.5.29.28.74.27,1.02-.01.28-.29.27-.74-.02-1.02-.14-.13-.32-.21-.5-.21ZM17.96,73.16h0s0,0,0,0Z"/>
  <path class="cls-5" d="M31.4,64.01c-1.47,0-2.77-.53-3.76-1.49-1.01-.99-1.58-2.3-1.6-3.71-.02-1.42.51-2.75,1.49-3.76,2.02-2.08,5.37-2.13,7.46-.12,1.02.99,1.58,2.3,1.61,3.71.02,1.41-.51,2.75-1.49,3.76-.98,1.01-2.29,1.58-3.7,1.6h0ZM31.31,58.01c-.2,0-.39.09-.52.22-.13.13-.21.32-.2.51s.08.37.22.51c.29.28.74.27,1.02-.01h0s0,0,0,0h0s0,0,0,0c.13-.13.21-.32.2-.51,0-.19-.08-.38-.22-.51-.13-.13-.32-.21-.5-.21Z"/>
</svg>